<svg version="1.1" id="Layer_1" xmlns="http://www.w3.org/2000/svg" xmlns:xlink="http://www.w3.org/1999/xlink" x="0px" y="0px"
	 width="100%" viewBox="0 0 704 704" enable-background="new 0 0 704 704" xml:space="preserve">
<path fill="#000000" opacity="1.000000" stroke="none" 
	d="
M627.937744,443.928162 
	C627.252747,452.083313 630.378662,459.131958 631.655273,466.471405 
	C634.907288,485.167511 632.482056,503.116119 626.709900,521.027466 
	C618.453369,546.648132 602.278442,566.185730 579.939453,580.008423 
	C560.472961,592.053711 538.682251,597.192566 515.385132,594.767212 
	C493.803986,592.520508 473.671967,585.864075 455.096008,575.057556 
	C429.372345,560.092834 406.462158,541.378296 385.224640,520.513977 
	C377.417877,512.844421 368.898468,505.887421 361.072174,496.954407 
	C356.223145,501.675293 351.708282,506.236298 347.016144,510.606995 
	C334.492065,522.273254 322.119537,534.081116 308.958038,545.078369 
	C293.043793,558.375732 276.426453,570.651733 257.814209,579.676086 
	C221.181000,597.438171 183.674835,602.549500 146.098267,582.610046 
	C121.221550,569.409668 104.854004,548.487305 95.154938,522.150757 
	C86.639214,499.027527 85.829399,475.734863 93.025650,452.177887 
	C93.778572,449.713104 93.647392,447.235168 93.647415,444.748535 
	C93.648064,373.266022 93.668633,301.783447 93.541786,230.301132 
	C93.533844,225.825546 94.750977,222.424393 97.738716,219.099854 
	C113.518837,201.540863 128.873520,183.606064 144.593201,165.988022 
	C157.761551,151.229401 170.555756,136.126328 183.619171,121.263763 
	C187.082108,117.323906 190.577911,115.955658 195.647202,115.961403 
	C300.121521,116.079742 404.595978,116.052719 509.070435,116.054657 
	C515.068970,116.054771 521.071655,116.191971 527.064392,116.006050 
	C530.730103,115.892326 533.308411,117.271721 535.681702,120.011887 
	C554.747742,142.025589 573.744019,164.103989 593.122253,185.841125 
	C602.636414,196.513428 611.297119,207.935455 621.497681,218.003235 
	C626.059570,222.505768 628.089722,227.750702 628.068481,234.492828 
	C627.849182,304.141296 627.937378,373.790710 627.937744,443.928162 
M251.266937,389.019165 
	C265.094879,395.729523 278.060791,403.951324 290.372284,413.027344 
	C310.059143,427.540436 328.360687,443.755463 345.834167,460.885345 
	C346.734406,461.767883 347.484009,463.043640 349.188080,462.834381 
	C350.473389,461.081848 349.892761,459.020264 349.895966,457.112244 
	C349.952637,423.281006 349.969452,389.449615 349.955383,355.618286 
	C349.952209,347.952393 350.261810,340.327087 351.583527,332.752319 
	C355.836670,308.377045 369.872314,292.134918 392.944733,283.894592 
	C410.809753,277.514130 429.574615,277.874146 447.733063,280.932678 
	C481.814270,286.673096 502.025818,309.517914 502.363220,345.353699 
	C502.452637,354.852295 502.439209,364.352722 502.369537,373.851532 
	C502.346252,377.026093 502.766479,378.738312 506.848480,378.132751 
	C537.505920,373.584656 564.716431,382.395508 589.656189,399.876678 
	C597.837708,405.611328 604.953735,412.467346 611.863342,420.704468 
	C612.139709,416.648834 612.535217,413.529724 612.537720,410.410278 
	C612.580383,357.246735 612.587585,304.083160 612.564270,250.919571 
	C612.560913,243.331238 612.063721,242.907516 604.732178,242.908386 
	C441.741516,242.927643 278.750854,242.968460 115.760254,242.879593 
	C110.822533,242.876892 109.160713,244.146042 109.176910,249.313690 
	C109.350304,304.643311 109.278305,359.973663 109.311363,415.303802 
	C109.312195,416.698822 108.742561,418.276794 110.054810,419.603363 
	C123.416489,405.321167 138.259140,393.346100 156.627106,386.007324 
	C174.917007,378.699738 193.520340,374.854004 213.252625,377.781464 
	C226.215973,379.704681 238.274734,384.559479 251.266937,389.019165 
M287.500000,132.150192 
	C258.340485,132.153702 229.180984,132.152115 200.021469,132.169449 
	C197.397537,132.171005 194.798737,131.854691 192.772812,134.415726 
	C181.735397,148.368500 169.660034,161.427612 157.875763,174.740067 
	C144.547104,189.797165 131.396729,205.012375 118.218384,220.201813 
	C116.674812,221.980942 114.570541,223.455078 113.873772,226.087875 
	C278.170380,226.087875 442.052246,226.087875 606.384521,226.087875 
	C602.885376,220.287582 598.440674,216.247894 594.508911,211.760345 
	C572.897644,187.094177 551.342346,162.378189 529.932007,137.537842 
	C526.611694,133.685608 523.120972,132.042313 517.945496,132.052505 
	C441.463867,132.203308 364.981903,132.152985 287.500000,132.150192 
M395.149261,508.352051 
	C399.072479,512.206665 403.510773,515.498169 407.516937,519.222046 
	C427.106323,537.430908 447.974182,553.721008 472.066376,565.734863 
	C487.634766,573.498169 503.837402,579.188171 521.177246,579.490845 
	C558.678467,580.145569 586.632202,563.336792 605.018066,530.782776 
	C615.387146,512.423279 619.588257,492.730743 616.752808,471.632721 
	C614.798462,457.090576 609.376343,443.838959 600.759583,432.268890 
	C591.832947,420.282654 580.043091,411.405853 566.663330,404.366821 
	C542.149475,391.470215 517.192627,389.178711 490.939758,398.289276 
	C468.567780,406.053040 449.149780,418.821075 430.813202,433.241699 
	C411.450409,448.469360 393.612122,465.499634 375.946777,482.668518 
	C374.796753,483.786194 373.182831,484.623566 373.014801,486.507660 
	C373.558929,485.981354 374.103058,485.455078 374.647186,484.928802 
	C381.311157,492.572449 387.975128,500.216125 395.149261,508.352051 
M196.502960,579.671448 
	C210.496887,579.569397 223.897385,576.483093 236.852707,571.400696 
	C261.177734,561.857849 282.179138,547.082458 301.882446,530.180420 
	C317.041412,517.176636 331.541321,503.487122 345.875488,489.598602 
	C348.553833,487.003510 348.605194,485.385742 345.842377,482.803436 
	C334.068176,471.798706 322.555389,460.523071 310.402863,449.914978 
	C291.179047,433.134247 271.477966,417.122070 248.349289,405.805817 
	C232.139481,397.874756 215.317108,391.523010 197.161240,392.656982 
	C164.875809,394.673553 138.505188,408.775909 119.138367,434.998047 
	C103.836914,455.715851 101.494064,479.511780 106.265175,503.609558 
	C111.278847,528.932495 124.843071,549.443359 146.851913,564.117310 
	C161.742889,574.045593 177.819031,579.177185 196.502960,579.671448 
M469.829468,306.646240 
	C467.724548,305.315216 465.741425,303.715485 463.494781,302.697113 
	C449.545105,296.373779 434.838440,294.461060 419.644989,295.302460 
	C408.349426,295.928040 397.143921,298.080627 387.637756,303.860992 
	C374.029175,312.135956 366.504028,325.245483 366.356720,341.329376 
	C365.976685,382.814911 366.170074,424.305725 366.170593,465.794434 
	C366.170624,466.666077 365.745392,467.841034 367.235596,468.455017 
	C377.966278,458.608002 388.534332,448.466644 399.574677,438.868500 
	C425.012756,416.753204 451.066040,395.486420 483.575470,384.219055 
	C486.330139,383.264282 486.922974,381.410004 486.908905,378.840973 
	C486.845001,367.178192 486.961304,355.513672 486.812897,343.852295 
	C486.627441,329.277039 480.983490,317.060242 469.829468,306.646240 
z"/>
<path fill="#000000" opacity="1.000000" stroke="none" 
	d="
M320.124756,329.711792 
	C319.495972,349.272552 301.926727,361.225769 286.755707,360.147949 
	C281.627747,359.783630 276.471893,360.310669 271.332977,359.422974 
	C257.181763,356.978455 246.751053,344.820129 246.661469,330.391693 
	C246.634613,326.066162 246.652222,321.740295 246.656967,317.414581 
	C246.677689,298.533386 259.276123,285.889404 278.318970,285.868683 
	C286.245819,285.860046 294.296417,284.897736 301.832367,288.722809 
	C313.571228,294.681244 319.920380,303.986389 320.121399,317.267548 
	C320.181824,321.259552 320.133087,325.253265 320.124756,329.711792 
M296.703369,303.504730 
	C289.905334,301.079620 282.875946,302.558380 275.961121,302.400330 
	C268.162079,302.222107 262.520050,307.866730 262.249268,315.703369 
	C262.082916,320.517639 262.105988,325.347168 262.269531,330.162170 
	C262.524811,337.679413 267.927216,343.360016 275.436523,343.845062 
	C280.072327,344.144501 284.742645,344.073364 289.392303,343.958923 
	C297.661743,343.755371 303.315277,338.138031 303.625336,329.811462 
	C303.786072,325.495483 303.671722,321.168732 303.657440,316.846893 
	C303.639862,311.525238 301.440033,307.253876 296.703369,303.504730 
z"/>
<path fill="#000000" opacity="1.000000" stroke="none" 
	d="
M595.350586,322.015503 
	C596.689819,335.335175 593.292542,346.244110 582.546021,354.185608 
	C581.744019,354.778320 581.023376,355.493561 580.182007,356.018982 
	C564.403625,365.871826 536.755188,360.193756 526.256592,344.976654 
	C524.913330,343.029663 523.812805,340.941681 523.441162,338.629944 
	C521.019104,323.565826 518.548889,308.475525 530.414368,295.712524 
	C536.536011,289.127808 544.041809,285.788971 553.045044,285.834045 
	C557.375427,285.855743 561.715698,285.667450 566.034668,285.894470 
	C582.699707,286.770416 595.244263,299.942963 595.346802,316.524200 
	C595.357117,318.189758 595.349609,319.855408 595.350586,322.015503 
M576.029785,306.500275 
	C573.295288,303.464722 569.915039,302.156525 565.810059,302.287872 
	C560.993408,302.441956 556.167297,302.267975 551.346863,302.342743 
	C543.746704,302.460632 539.083191,306.475372 538.549561,314.051971 
	C538.130432,320.003418 538.131104,326.036499 538.587708,331.983978 
	C539.128906,339.032562 543.988281,343.505646 551.035278,343.856384 
	C556.174744,344.112152 561.350464,344.122650 566.487244,343.835083 
	C573.977966,343.415710 579.437439,337.684784 579.699646,330.208771 
	C579.856995,325.725006 579.682312,321.230469 579.782043,316.743530 
	C579.863281,313.090027 578.849976,309.868378 576.029785,306.500275 
z"/>
<path fill="#000000" opacity="1.000000" stroke="none" 
	d="
M191.020416,359.419006 
	C182.463425,360.509949 174.301102,360.708862 166.244003,359.161621 
	C153.245148,356.665375 143.131012,344.466431 142.720367,331.082184 
	C142.577438,326.423492 142.771515,321.755219 142.669815,317.094421 
	C142.350800,302.470764 152.521759,288.062103 168.902817,286.305389 
	C177.798615,285.351410 186.843384,284.698761 195.602142,287.764526 
	C207.992538,292.101501 215.243744,302.214417 215.338318,315.365936 
	C215.368240,319.529053 215.350784,323.692596 215.347595,327.855927 
	C215.334412,345.071686 208.051682,354.665985 191.020416,359.419006 
M199.768494,321.561188 
	C199.767838,320.228607 199.784592,318.895721 199.763748,317.563446 
	C199.604111,307.359161 194.546036,302.353577 184.348297,302.317566 
	C180.517181,302.304047 176.685547,302.287598 172.854858,302.332733 
	C164.473343,302.431519 159.028748,307.294983 158.466797,315.631805 
	C158.131592,320.605133 158.152115,325.638123 158.488495,330.612122 
	C158.925003,337.066742 163.378098,342.376343 169.227554,343.513153 
	C172.134613,344.078156 175.200302,343.774078 178.181183,344.020660 
	C196.388870,345.526764 200.977966,337.083405 199.768494,321.561188 
z"/>
</svg>